<?xml version="1.0" standalone="no"?>
<!DOCTYPE svg PUBLIC "-//W3C//DTD SVG 20010904//EN"
 "http://www.w3.org/TR/2001/REC-SVG-20010904/DTD/svg10.dtd">
<svg version="1.0" xmlns="http://www.w3.org/2000/svg"
 width="250.000000pt" height="250.000000pt" viewBox="0 0 250.000000 250.000000"
 preserveAspectRatio="xMidYMid meet">
<metadata>
Created by potrace 1.14, written by Peter Selinger 2001-2017
</metadata>
<g transform="translate(0.000000,250.000000) scale(0.100000,-0.100000)"
fill="#000000" stroke="none">
<path d="M743 2282 c-46 -30 -67 -269 -33 -371 23 -68 49 -102 86 -114 16 -4
40 -13 54 -19 14 -6 34 -14 45 -18 52 -19 133 -65 129 -72 -7 -11 -38 -10 -49
1 -12 12 -220 82 -260 89 -75 11 -328 9 -371 -4 -24 -7 -48 -13 -52 -14 -24
-2 -92 -25 -125 -41 -85 -44 -95 -73 -51 -155 96 -181 329 -361 560 -433 l71
-21 1 -58 c2 -112 30 -219 87 -334 57 -114 92 -164 167 -239 257 -255 636
-316 959 -154 197 99 347 279 416 496 23 75 26 101 27 234 1 119 -3 162 -18
210 -10 33 -19 65 -20 70 -1 6 -17 42 -36 80 -119 247 -354 419 -625 459 -77
12 -187 12 -231 1 -17 -4 -28 4 -49 33 -81 110 -239 240 -368 304 -125 62
-276 96 -314 70z m202 -229 c28 -27 66 -68 85 -92 19 -24 40 -48 45 -55 6 -6
28 -35 49 -64 27 -38 36 -56 28 -64 -8 -8 -18 -2 -36 18 -14 16 -26 34 -26 41
0 6 -3 13 -7 15 -5 2 -34 35 -66 74 -31 39 -80 92 -107 118 -28 26 -50 54 -50
62 0 21 26 5 85 -53z m516 -384 c42 -22 6 -94 -60 -121 -68 -28 -171 -10 -171
31 0 39 62 91 125 104 28 5 84 -2 106 -14z m-378 -73 c19 -15 22 -26 6 -26
-19 0 -79 -52 -79 -69 0 -25 15 -42 38 -44 26 -2 26 -2 9 -19 -15 -15 -54 -97
-87 -181 -25 -64 -32 -71 -59 -62 -80 25 -22 249 98 374 43 45 48 47 74 27z
m-502 -69 c74 -25 162 -53 196 -62 52 -15 60 -20 49 -31 -16 -15 -47 -7 -262
64 -127 42 -184 67 -184 81 0 17 14 20 40 6 15 -8 87 -34 161 -58z"/>
</g>
</svg>
